<?xml version="1.0" encoding="UTF-8"?>
<!DOCTYPE svg PUBLIC "-//W3C//DTD SVG 1.1//EN" "http://www.w3.org/Graphics/SVG/1.1/DTD/svg11.dtd">
<!-- Creator: CorelDRAW X7 -->
<svg xmlns="http://www.w3.org/2000/svg" xml:space="preserve" width="11.8437in" height="12.0952in" version="1.1" style="shape-rendering:geometricPrecision; text-rendering:geometricPrecision; image-rendering:optimizeQuality; fill-rule:evenodd; clip-rule:evenodd"
viewBox="0 0 9079 9272"
 xmlns:xlink="http://www.w3.org/1999/xlink">
 <defs>
  <style type="text/css">
   <![CDATA[
    .str0 {stroke:black;stroke-width:5.32379}
    .fil38 {fill:none}
    .fil16 {fill:#021C3D}
    .fil26 {fill:#021C3D}
    .fil18 {fill:#0B0929}
    .fil21 {fill:#130C34}
    .fil20 {fill:#171647}
    .fil14 {fill:#1A1544}
    .fil37 {fill:#1B185C}
    .fil15 {fill:#221C55}
    .fil3 {fill:#272366}
    .fil32 {fill:#2A0810}
    .fil30 {fill:#2B102B}
    .fil36 {fill:#332F73}
    .fil22 {fill:#3876D9}
    .fil39 {fill:#48447A}
    .fil4 {fill:#48447A}
    .fil5 {fill:#5A5694}
    .fil11 {fill:#908FBA}
    .fil13 {fill:#908FBA}
    .fil31 {fill:#A23930}
    .fil25 {fill:#A94639}
    .fil24 {fill:#B14A3D}
    .fil9 {fill:#BD8D4E}
    .fil10 {fill:#BD8D4E}
    .fil28 {fill:#BDD5F1}
    .fil35 {fill:#D5E3E5}
    .fil29 {fill:#D9ACAF}
    .fil6 {fill:#E3BD8B}
    .fil7 {fill:#E3BD8B}
    .fil33 {fill:#F9FDFD}
    .fil23 {fill:#FACA4E}
    .fil19 {fill:#FAFA82}
    .fil17 {fill:#FAFA82}
    .fil34 {fill:#FCD553}
    .fil27 {fill:yellow}
    .fil2 {fill:#FFFFB2}
    .fil0 {fill:yellow;fill-rule:nonzero}
    .fil1 {fill:url(#id1)}
    .fil8 {fill:url(#id2)}
    .fil12 {fill:url(#id3)}
   ]]>
  </style>
     <clipPath id="id0">
      <path d="M6392 2314c143,0 259,116 259,260 0,143 -116,259 -259,259 -144,0 -260,-116 -260,-259 0,-144 116,-260 260,-260z"/>
     </clipPath>
  <linearGradient id="id1" gradientUnits="userSpaceOnUse" x1="5201.8" y1="7982.81" x2="5108.6" y2="1830.9">
   <stop offset="0" style="stop-opacity:1; stop-color:#0A0829"/>
   <stop offset="1" style="stop-opacity:1; stop-color:#1A1654"/>
  </linearGradient>
  <linearGradient id="id2" gradientUnits="userSpaceOnUse" x1="4166.73" y1="2947.02" x2="1736.61" y2="3937.07">
   <stop offset="0" style="stop-opacity:1; stop-color:#2A2694"/>
   <stop offset="1" style="stop-opacity:1; stop-color:#FFF200"/>
  </linearGradient>
  <linearGradient id="id3" gradientUnits="userSpaceOnUse" x1="1429.19" y1="3001.8" x2="2983.14" y2="3001.8">
   <stop offset="0" style="stop-opacity:1; stop-color:#115EC2"/>
   <stop offset="1" style="stop-opacity:1; stop-color:#FFF200"/>
  </linearGradient>
 </defs>
 <g id="Layer_x0020_1">
  <metadata id="CorelCorpID_0Corel-Layer"/>
  <g id="_1356026376640">
   <path class="fil0" d="M1703 33c-203,170 -298,354 -307,520 -5,97 18,187 67,265 49,79 123,144 217,191 189,92 458,107 773,-7 462,-168 659,-123 715,34 61,166 -47,455 -154,743 -81,217 -162,433 -167,587 -3,125 45,207 193,212 802,25 1072,-121 1307,-249 152,-82 289,-157 541,-175l16 -2 6 16c287,882 -8,1177 -245,1415 -121,120 -226,225 -225,387 0,16 21,22 57,22 91,-1 258,-47 453,-100 175,-48 372,-102 555,-134 355,-64 667,-51 715,221 76,423 43,778 16,1060 -17,178 -30,326 -12,441 48,303 334,385 1443,208 332,-52 468,96 506,335 39,246 -29,589 -92,904 -70,351 -134,667 -32,755 109,95 264,44 423,-8 162,-52 329,-107 471,-24 181,104 143,254 101,421 -16,63 -32,127 -37,191l-42 -3c5,-68 21,-134 38,-198 38,-151 72,-286 -81,-375 -126,-72 -283,-21 -436,29 -172,56 -338,110 -465,-1 -120,-104 -55,-431 18,-796 62,-311 130,-650 92,-888 -34,-215 -157,-347 -457,-300 -1143,182 -1439,90 -1492,-244 -19,-120 -5,-270 12,-451 26,-279 59,-631 -15,-1049 -43,-238 -335,-246 -666,-186 -184,32 -378,86 -552,133 -197,54 -367,101 -464,101 -63,1 -99,-18 -99,-64 -1,-179 110,-290 236,-417 228,-228 510,-511 240,-1356 -232,20 -363,91 -507,169 -239,131 -514,280 -1328,254 -179,-5 -239,-105 -234,-255 5,-161 87,-381 169,-601 104,-280 209,-562 154,-714 -48,-132 -228,-166 -661,-9 -326,119 -608,103 -805,6 -102,-50 -182,-121 -235,-206 -53,-86 -79,-185 -74,-291 10,-177 110,-372 323,-550l27 33z"/>
   <path class="fil0" d="M350 1042c-203,170 -298,354 -307,520 -5,97 19,188 67,266 49,78 123,144 218,190 188,92 457,107 772,-7 463,-168 659,-122 716,34 60,166 -48,456 -155,743 -81,217 -161,434 -166,587 -4,125 45,208 193,213 802,25 1071,-122 1306,-249 152,-83 290,-157 541,-176l17 -1 5 16c287,882 -8,1177 -245,1414 -120,121 -225,226 -224,387 0,16 20,23 56,22 91,0 259,-46 454,-99 174,-48 371,-102 555,-135 354,-63 666,-50 715,221 75,423 42,779 15,1061 -16,177 -30,325 -12,440 48,304 334,385 1444,209 331,-53 467,95 505,335 40,246 -29,588 -92,903 -70,352 -133,668 -32,756 109,95 264,44 424,-8 162,-53 328,-107 471,-25 181,105 143,255 100,422 -16,62 -32,127 -37,191l-42 -3c5,-68 22,-134 38,-198 38,-151 73,-287 -80,-375 -126,-73 -284,-21 -437,28 -171,56 -338,110 -465,0 -120,-104 -54,-432 18,-796 63,-311 130,-650 92,-889 -34,-214 -157,-347 -457,-299 -1143,182 -1439,89 -1492,-244 -19,-120 -5,-271 12,-451 26,-279 60,-631 -15,-1049 -43,-238 -334,-246 -666,-187 -184,33 -378,86 -551,134 -198,54 -368,100 -464,101 -63,0 -100,-18 -100,-65 -1,-179 110,-289 237,-417 228,-228 510,-510 240,-1355 -232,20 -363,91 -507,169 -240,130 -515,279 -1329,254 -179,-6 -238,-105 -234,-256 5,-161 87,-380 169,-601 105,-280 210,-562 155,-713 -48,-133 -228,-166 -661,-9 -327,119 -608,102 -806,5 -102,-50 -182,-121 -235,-206 -53,-85 -79,-184 -73,-290 10,-177 109,-372 322,-550l27 32z"/>
   <g>
    <path class="fil1 str0" d="M4381 1893c72,-80 235,-102 294,-95 776,95 1358,148 2122,255 48,7 191,61 235,165 80,193 41,250 32,328 -338,1727 -551,3303 -888,5029 -13,66 -73,269 -163,347 -68,59 -176,106 -321,93l-2139 -348c-67,-16 -136,-14 -245,-148 -28,-35 -99,-148 -74,-230 371,-1731 625,-3360 1005,-5094 11,-49 22,-170 142,-302z"/>
    <circle class="fil2" cx="4397" cy="4130" r="317"/>
    <path class="fil3" d="M5082 3897l1105 165c95,14 162,104 147,199l-59 401c-15,95 -104,162 -200,148l-1105 -165c-95,-14 -161,-104 -147,-199l60 -401c14,-96 104,-162 199,-148z"/>
    <circle class="fil4" cx="4192" cy="5104" r="317"/>
    <path class="fil5" d="M4877 4871l1105 165c96,14 162,104 148,199l-60 402c-14,95 -104,161 -199,147l-1105 -165c-95,-14 -162,-104 -148,-199l60 -401c14,-95 104,-162 199,-148z"/>
    <circle class="fil4" cx="3988" cy="6078" r="317"/>
    <path class="fil3" d="M4673 5846l1105 164c95,15 161,104 147,200l-60 401c-14,95 -104,162 -199,147l-1105 -164c-95,-14 -162,-104 -147,-200l59 -401c15,-95 104,-161 200,-147z"/>
    <path class="fil6" d="M2154 4049c51,42 283,23 378,34 -288,60 -586,45 -884,25 -62,214 13,771 69,1006 73,305 182,559 323,795 607,1009 1742,1491 2914,1555 463,26 1065,-27 1490,-180 67,-24 134,-51 203,-73 75,-24 88,-35 150,-65 42,-21 25,-17 37,-7 87,-35 263,-195 279,-304 11,-82 -36,-97 -59,-135 15,-40 30,-39 55,-79 -3,2 -16,9 -19,10l-14 5c-3,1 -6,2 -8,3 -47,26 -24,-3 -35,46 11,47 -180,163 -223,188 -85,48 -2,52 -56,79 -15,-19 -23,-234 -61,-373 -49,-174 -115,-246 -133,-309 47,7 36,6 50,49 63,-21 159,-90 210,-128 40,-30 57,-43 94,-76 28,-24 53,-56 85,-70 9,-109 -24,-179 -120,-195 -89,-15 -167,48 -221,84 -29,-16 -6,9 -16,-29 -21,63 -18,53 -75,86 -35,21 -69,32 -100,58 -15,-10 -11,14 -12,-17 -30,42 -13,27 -66,47 -30,12 -51,21 -88,28 21,-108 229,-238 100,-404 -21,-14 -26,-21 -53,-34 -34,-17 -41,-5 -42,-39 -39,9 -65,24 -106,27 -44,3 -37,-7 -82,12l-17 11 55 -2c-36,35 -77,63 -116,96 -40,34 -72,65 -115,97 -481,358 -1135,310 -1701,154 -167,-45 -487,-153 -590,-241 -17,-6 -31,-12 -50,-24 -38,-25 -25,-8 -39,-46 -24,18 -24,6 -56,-18 -100,-79 -318,-257 -353,-367 -60,-35 -206,-359 -227,-467 -35,-66 -75,-298 -89,-392 -18,-123 -28,-400 -28,-400 -8,-45 15,-27 -20,-40 -104,14 -170,31 -298,33 -119,2 -209,-7 -320,-14z"/>
    <path class="fil7" d="M7022 3565c-15,44 -16,57 -56,70 -7,56 -88,126 -119,177 -10,-12 -11,20 -10,-29 -18,31 -5,27 -21,52 -7,13 -23,25 -36,37 -30,28 -47,50 -78,75 -356,318 -958,518 -1624,427 -346,-48 -484,-130 -724,-322 -344,-276 -494,90 -202,323 -81,0 -258,-49 -331,-72l6 -38c-1,3 -11,19 -12,19l-45 6c-49,-22 -179,-57 -251,-38 -88,24 -100,93 -88,193 142,59 297,129 454,172 9,-38 2,-45 37,-58 8,27 -34,94 -49,133 -82,212 -62,498 -79,527 -18,-10 -15,8 -21,-63 -98,-15 -246,-101 -310,-104l-20 8c-74,81 -32,163 40,210 -9,-28 -10,-17 -19,-44 409,184 645,255 1112,326 453,70 904,75 1359,8 678,-100 1252,-352 1702,-830 33,-35 134,-161 156,-207l-1 27c46,-37 76,-186 87,-239 21,-99 30,-188 28,-294 -4,-199 -54,-375 -127,-526 -115,-240 -385,-562 -601,-690 -11,69 -26,139 -38,208 -17,94 5,49 14,105 7,45 -53,347 -133,451z"/>
    <path class="fil8" d="M3137 3566c149,31 354,141 592,-9 73,-46 95,-100 129,-116 -20,157 -302,321 -545,247 -77,-23 -146,-50 -176,-122zm-154 -1499c-147,17 -406,213 -495,282 -295,224 -535,572 -668,929 -50,134 -160,512 -128,665l39 17c109,37 313,83 423,89 111,7 201,16 320,14 128,-2 194,-19 298,-33 0,-225 40,-466 54,-684 2,-39 8,-78 11,-118 1,-16 3,-47 6,-62l18 -44c2,-3 4,-6 6,-9 3,3 6,4 7,10 2,13 9,-1 16,41 0,5 -1,57 -2,65l-13 383c-1,158 -5,336 13,488 48,403 67,465 226,793l220 18c-1,-90 -9,-134 61,-163l0 -24c-37,-17 -63,-73 -62,-132 0,-83 32,-102 88,-130l10 -17c-12,-100 0,-169 88,-193 72,-19 202,16 251,38 1,-107 73,-389 96,-509 20,-103 104,-430 94,-510 -15,-74 154,-803 184,-980 18,-104 58,-214 73,-307l-105 -11c-87,170 -186,14 -192,148 0,15 2,37 2,54 -2,145 -129,231 -289,211 -89,-11 -196,-81 -248,-155 -25,-36 -40,-94 -83,-105 -69,-18 -99,2 -159,-35 -94,-58 -19,-38 -160,-24z"/>
    <path class="fil9" d="M2706 7021c7,-27 -10,-8 12,-22 112,104 488,268 516,290 9,1 411,145 583,187 103,25 213,45 319,64 61,11 311,40 337,52l51 10 254 14 48 0c119,-7 251,2 373,-2 210,-6 843,-83 971,-166l9 24c17,-35 34,-36 121,-67 2,0 23,-6 23,-6 33,-1 6,-10 28,8 39,-59 311,-121 483,-268 -12,-10 5,-14 -37,7 -62,30 -75,41 -150,65 -69,22 -136,49 -203,73 -425,153 -1027,206 -1490,180 -1172,-64 -2307,-546 -2914,-1555 -141,-236 -250,-490 -323,-795 -56,-235 -131,-792 -69,-1006 298,20 596,35 884,-25 -95,-11 -327,8 -378,-34 -110,-6 -314,-52 -423,-89l-39 -17c-103,-20 -177,-82 -263,-108 -78,235 -48,794 -20,1055 32,302 138,641 250,888 124,273 277,500 446,694 132,154 354,357 526,475 58,40 40,18 75,74z"/>
    <path class="fil10" d="M3483 5270c40,39 108,50 132,102 28,-19 1,-18 43,3 16,8 34,19 50,27 561,257 1437,377 2085,314 96,-9 217,-34 308,-36l17 -11c45,-19 38,-9 82,-12 41,-3 67,-18 106,-27l96 -20 138 -40 172 -61c260,-119 451,-211 643,-380 94,-82 173,-156 253,-258 42,-54 181,-248 184,-321l1 -27c-22,46 -123,172 -156,207 -450,478 -1024,730 -1702,830 -455,67 -906,62 -1359,-8 -467,-71 -703,-142 -1112,-326 9,27 10,16 19,44z"/>
    <path class="fil11" d="M4262 1959c-79,163 -178,742 -224,981l-51 247c-6,31 -8,62 -27,84 10,80 -74,407 -94,510 -23,120 -95,402 -96,509l45 -6c1,0 11,-16 12,-19 5,-113 54,-298 78,-414l334 -1656c115,-547 469,-389 1025,-329l1330 161c161,18 293,23 383,116 80,82 123,217 94,371 -74,407 -173,875 -234,1269 -1,49 0,17 10,29 31,-51 112,-121 119,-177l84 -515c12,-57 2,-46 44,-48 24,35 -22,189 -32,242 -15,82 -26,168 -40,251 80,-104 140,-406 133,-451 -9,-56 -31,-11 -14,-105 12,-69 27,-139 38,-208 27,-141 80,-324 39,-463 -41,-141 -135,-226 -259,-283 -183,-84 -692,-120 -928,-147 -162,-19 -1342,-177 -1445,-165 -168,20 -254,115 -324,216z"/>
    <path class="fil12" d="M1429 3835c86,26 160,88 263,108 -32,-153 78,-531 128,-665 133,-357 373,-705 668,-929 89,-69 348,-265 495,-282l-22 -6c-162,-15 -645,285 -807,423 -217,186 -410,432 -538,707 -63,136 -188,475 -187,644z"/>
    <path class="fil13" d="M2980 7785c49,24 124,10 175,0 60,-22 51,-47 66,-114 10,-47 19,-97 25,-145 12,10 9,7 20,19 49,52 6,33 101,103 146,106 349,73 554,145 60,3 144,2 192,24l496 75c278,39 560,93 837,137 238,38 432,109 617,14 73,-37 86,-68 143,-106 6,-32 35,-64 53,-103 19,-41 32,-84 39,-131 -18,-23 -11,27 -13,-43l18 -141c-132,-11 -120,58 -123,68l-8 -23 -18 0c6,63 -19,152 -42,208 -83,202 -247,273 -476,236 -281,-44 -565,-98 -848,-141 -285,-43 -569,-89 -853,-137 -131,-23 -302,-42 -428,-73 -124,-30 -238,-150 -241,-248l-29 -41 -57 6c-63,-16 -223,-126 -292,-143 -3,48 97,518 118,545l-26 9z"/>
    <path class="fil7" d="M3764 1782c45,5 28,-9 31,-12l-26 -132c31,29 46,89 43,122l-14 38c-44,12 -52,9 -74,-32 4,1 7,4 10,5 3,1 7,4 11,5 28,9 -25,1 19,6zm-106 -111c-12,-42 14,-39 19,-42 30,19 31,12 19,64 -25,-1 -31,1 -38,-22zm189 -54c42,23 45,50 -1,67 -39,-68 1,-67 1,-67zm-228 -12c24,-51 58,-50 95,-22l-95 22zm248 -29c-67,12 -51,0 -62,-9 22,-21 63,-9 84,0 -15,9 3,4 -22,9zm-448 524c-22,19 23,5 -28,22 21,210 427,313 474,93 45,-207 -80,-94 -115,-168l-8 -53c-55,8 -73,5 -115,-24 -37,-25 -56,-30 -71,-74 59,18 122,48 180,18 53,-4 91,-43 121,-80 29,-35 39,-82 55,-128 7,-72 9,-146 -25,-199 -10,-15 -36,-50 -46,-61 -17,-20 -35,-31 -53,-48l-14 -7c-31,90 -140,189 -258,211 -79,14 -156,-21 -159,73 -3,94 62,85 116,106 26,55 36,124 37,192 2,86 -19,107 -91,127z"/>
    <path class="fil14" d="M3230 1710c-66,52 -172,143 -136,287 51,101 98,113 264,107l61 -4c72,-20 93,-41 91,-127 -1,-68 -11,-137 -37,-192 -54,-21 -119,-12 -116,-106 3,-94 80,-59 159,-73 118,-22 227,-121 258,-211 -71,-21 -280,43 -349,74 -32,14 -130,63 -143,81 -31,43 0,111 -52,164z"/>
    <path class="fil15" d="M3136 5329c35,110 253,288 353,367 32,24 32,36 56,18l70 -342c-24,-52 -92,-63 -132,-102 -72,-47 -114,-129 -40,-210 -53,-5 -261,-1 -343,9 -39,46 -47,88 -19,150 27,60 70,89 55,110z"/>
    <path class="fil16" d="M2772 4030c35,13 12,-5 20,40 0,0 10,277 28,400 14,94 54,326 89,392l205 31c-159,-328 -178,-390 -226,-793 -18,-152 -14,-330 -13,-488l13 -383c1,-8 2,-60 2,-65 -7,-42 -14,-28 -16,-41 -1,-6 -4,-7 -7,-10 -2,3 -4,6 -6,9l-18 44c-3,15 -5,46 -6,62 -3,40 -9,79 -11,118 -14,218 -54,459 -54,684z"/>
    <path class="fil17" d="M2991 1670c37,12 97,48 196,32 64,-10 -45,13 19,-4 102,-29 -27,-111 121,-203 39,-24 166,-74 220,-88 35,-9 93,-22 122,-27 61,-8 58,8 139,-7 122,-24 124,62 151,148 83,-2 109,-36 167,-66 61,-32 110,-39 110,-127 -281,-105 -749,18 -1020,141 -99,46 -226,88 -225,201z"/>
    <path class="fil18" d="M2706 7021c24,133 62,277 93,407l78 295c19,60 9,40 64,62l39 0 26 -9c-21,-27 -121,-497 -118,-545 69,17 229,127 292,143l57 -6 -3 -79c-28,-22 -404,-186 -516,-290 -22,14 -5,-5 -12,22z"/>
    <path class="fil7" d="M7067 6354c76,-131 83,-237 -60,-305 -10,77 -293,255 -372,288 20,80 68,148 86,240 56,-18 132,-73 177,-105 42,-31 122,-108 169,-118z"/>
    <path class="fil7" d="M3395 4724c81,8 286,123 399,144 21,-50 52,-169 71,-223 -35,-28 -181,-66 -231,-85 -74,-28 -150,-67 -213,-98 -56,28 -88,47 -88,130 -1,59 25,115 62,132z"/>
    <path class="fil19" d="M3303 1083l17 1c-21,60 -18,213 53,215 50,-7 93,-26 146,-40 44,-11 107,-19 143,-31 30,-21 52,-21 89,-23 35,-1 70,0 106,-2 2,-54 -35,-100 -63,-125 -49,-43 -70,-34 -143,-39 -36,-3 -38,10 -87,3 -52,-8 -144,-42 -226,6 -35,20 -18,7 -35,35z"/>
    <path class="fil7" d="M3334 4911c50,65 48,80 116,120 87,-8 223,75 317,95l24 -228 -396 -150c-70,29 -62,73 -61,163z"/>
    <path class="fil7" d="M7033 6685c11,-49 -12,-20 35,-46 2,-1 5,-2 8,-3l14 -5c3,-1 16,-8 19,-10 25,-44 45,-89 37,-153 -9,-64 -41,-83 -79,-114 -32,61 -104,102 -162,146 -52,39 -119,72 -166,114l30 244c35,-4 112,-63 142,-86 28,-21 106,-84 122,-87z"/>
    <path class="fil20" d="M3912 1706c-16,46 -26,93 -55,128 -30,37 -68,76 -121,80l6 80 8 53c37,13 89,11 137,14 61,-40 178,37 211,-119 2,-79 -20,-135 -60,-182 -44,-51 -78,-68 -88,-160l-7 0c-6,23 -4,31 -8,53 -16,92 -4,29 -23,53z"/>
    <path class="fil21" d="M3136 5329c15,-21 -28,-50 -55,-110 -28,-62 -20,-104 19,-150 82,-10 290,-14 343,-9l20 -8c-6,-10 1,-7 -13,-21 -68,-40 -66,-55 -116,-120l-220 -18 -205 -31c21,108 167,432 227,467z"/>
    <path class="fil13" d="M6540 5570l-85 462c1,31 -3,7 12,17 31,-26 65,-37 100,-58 57,-33 54,-23 75,-86l70 -396 -172 61z"/>
    <path class="fil22" d="M3887 2061c7,91 28,148 -26,224 -35,50 -110,88 -203,79 -133,-13 -296,-143 -300,-260 -166,6 -213,-6 -264,-107 -1,3 -5,4 -6,8 -6,22 -72,30 -88,35l-39 21 22 6c141,-14 66,-34 160,24 60,37 90,17 159,35 43,11 58,69 83,105 52,74 159,144 248,155 160,20 287,-66 289,-211 0,-17 -2,-39 -2,-54 6,-134 105,22 192,-148l105 11c-15,93 -55,203 -73,307 -30,177 -199,906 -184,980 19,-22 21,-53 27,-84l51 -247c46,-239 145,-818 224,-981l-164 -17c-33,156 -150,79 -211,119z"/>
    <path class="fil23" d="M2991 1670c-1,-113 126,-155 225,-201 271,-123 739,-246 1020,-141 0,88 -49,95 -110,127 -58,30 -84,64 -167,66 -27,-86 -29,-172 -151,-148 -81,15 -78,-1 -139,7 -29,5 -87,18 -122,27 -54,14 -181,64 -220,88 -148,92 -19,174 -121,203 -64,17 45,-6 -19,4 -99,16 -159,-20 -196,-32zm225 -245c-29,31 -112,61 -155,91 -51,37 -97,78 -82,166 63,39 159,47 251,28 52,-53 21,-121 52,-164 13,-18 111,-67 143,-81 69,-31 278,-95 349,-74l14 7c17,-20 -5,-12 38,-17 41,-5 75,15 92,53 24,50 31,109 25,166l7 0 0 -54c78,-13 124,-39 186,-71 56,-30 129,-59 118,-141 -83,-114 -258,-44 -344,-85 -16,32 -147,28 -187,35 -62,11 -118,22 -177,36 -100,25 -252,95 -330,105z"/>
    <path class="fil24" d="M7033 6685c-16,3 -94,66 -122,87 -30,23 -107,82 -142,86l-30 -244c47,-42 114,-75 166,-114 58,-44 130,-85 162,-146 -47,10 -127,87 -169,118 -45,32 -121,87 -177,105 -18,-92 -66,-160 -86,-240 79,-33 362,-211 372,-288l-8 -4c-32,14 -57,46 -85,70 -37,33 -54,46 -94,76 -51,38 -147,107 -210,128 -14,-43 -3,-42 -50,-49 18,63 84,135 133,309 38,139 46,354 61,373 54,-27 -29,-31 56,-79 43,-25 234,-141 223,-188z"/>
    <path class="fil25" d="M3421 4462c63,31 139,70 213,98 50,19 196,57 231,85 -19,54 -50,173 -71,223 -113,-21 -318,-136 -399,-144l0 24 396 150 -24 228c-94,-20 -230,-103 -317,-95 14,14 7,11 13,21 64,3 212,89 310,104 6,71 3,53 21,63 17,-29 -3,-315 79,-527 15,-39 57,-106 49,-133 -35,13 -28,20 -37,58 -157,-43 -312,-113 -454,-172l-10 17z"/>
    <path class="fil13" d="M5474 1955l-3 28c78,14 215,26 306,38 24,3 95,23 91,-10 -2,-24 -62,-22 -86,-25 -51,-6 -293,-39 -308,-31z"/>
    <path class="fil26" d="M3137 3566c30,72 99,99 176,122 243,74 525,-90 545,-247 -34,16 -56,70 -129,116 -238,150 -443,40 -592,9z"/>
    <path class="fil27" d="M3662 1228c-36,12 -99,20 -143,31 -53,14 -96,33 -146,40l-155 67 -2 59c78,-10 230,-80 330,-105 59,-14 115,-25 177,-36 40,-7 171,-3 187,-35l-10 -24c-82,-11 -157,-4 -238,3z"/>
    <path class="fil21" d="M3223 7928l-41 -26c19,48 56,23 53,82 -101,32 -235,-80 -294,-115l-2 2c-1,36 1,129 12,162 35,101 68,-10 76,-21 49,36 53,55 138,63 88,9 255,7 132,-91 -21,-17 -54,-39 -74,-56z"/>
    <path class="fil7" d="M2941 7869c59,35 193,147 294,115 3,-59 -34,-34 -53,-82 -2,-3 -4,-9 -5,-8l-17 -37c-5,-20 -5,-51 -5,-72 -51,10 -126,24 -175,0l-39 0 0 84z"/>
    <path class="fil21" d="M4172 7917l-33 -13c22,23 26,14 34,49 -80,53 -195,-79 -251,-93l-1 9c-4,36 -2,59 2,95 5,48 -2,51 30,70 29,-9 13,-3 26,-19l17 -29c38,27 47,45 108,52 52,6 115,7 157,-8 1,-69 -60,-72 -89,-113z"/>
    <path class="fil28" d="M7035 3642c40,-13 41,-25 56,-69 14,-83 25,-170 40,-252 10,-52 55,-206 32,-241 -42,1 -32,-9 -44,48l-84 514z"/>
    <path class="fil7" d="M3922 7860c56,14 171,146 251,93 -8,-35 -12,-26 -34,-49 -2,-2 -5,-5 -6,-7 -51,-64 -32,-64 -20,-80 -48,-22 -132,-21 -192,-24l1 67z"/>
    <path class="fil29" d="M3419 2100l-61 4c4,117 167,247 300,260 93,9 168,-29 203,-79 54,-76 33,-133 26,-224 -48,-3 -100,-1 -137,-14 35,74 160,-39 115,168 -47,220 -453,117 -474,-93 51,-17 6,-3 28,-22z"/>
    <path class="fil27" d="M3218 1366l155 -67c-71,-2 -74,-155 -53,-215l-17 -1c-85,34 -90,210 -85,283z"/>
    <path class="fil13" d="M6179 7472l-7 92 8 23c3,-10 -9,-79 123,-68l-18 141c2,70 -5,20 13,43l53 -296c-22,-18 5,-9 -28,-8 0,0 -21,6 -23,6 -87,31 -104,32 -121,67z"/>
    <path class="fil30" d="M3912 1706c19,-24 7,39 23,-53 4,-22 2,-30 8,-53 6,-57 -1,-116 -25,-166 -17,-38 -51,-58 -92,-53 -43,5 -21,-3 -38,17 18,17 36,28 53,48 10,11 36,46 46,61 34,53 32,127 25,199z"/>
    <path class="fil27" d="M3651 1039c73,5 94,-4 143,39 28,25 65,71 63,125 -36,2 -71,1 -106,2 -37,2 -59,2 -89,23 81,-7 156,-14 238,-3 -13,-65 -46,-118 -83,-159 -38,-42 -97,-70 -146,-45 -24,12 -5,2 -20,18z"/>
    <path class="fil10" d="M3742 1994l-6 -80c-58,30 -121,0 -180,-18 15,44 34,49 71,74 42,29 60,32 115,24z"/>
    <path class="fil31" d="M3795 1770c-3,3 14,17 -31,12 -44,-5 9,3 -19,-6 -4,-1 -8,-4 -11,-5 -3,-1 -6,-4 -10,-5 22,41 30,44 74,32l14 -38c3,-33 -12,-93 -43,-122l26 132z"/>
    <path class="fil32" d="M3696 1693c12,-52 11,-45 -19,-64 -5,3 -31,0 -19,42 7,23 13,21 38,22z"/>
    <path class="fil32" d="M3846 1684c46,-17 43,-44 1,-67 0,0 -40,-1 -1,67z"/>
    <path class="fil32" d="M3619 1605l95 -22c-37,-28 -71,-29 -95,22z"/>
    <path class="fil32" d="M3805 1567c11,9 -5,21 62,9 25,-5 7,0 22,-9 -21,-9 -62,-21 -84,0z"/>
    <g>
     <path class="fil33" d="M4713 2239c3,-19 -2,-24 -15,-26 -15,-2 -42,29 -53,42l-13 15c-2,3 -4,5 -6,7 -9,10 -37,39 -38,48 7,2 11,4 20,5l70 10c-1,-6 -4,-6 -9,-10 -18,-13 -24,-42 -12,-58 3,-4 6,-7 10,-10 12,-9 30,-21 32,2l5 1c8,-21 42,-33 38,-5 -1,7 -25,31 -31,40 -22,27 -11,71 36,31 4,-4 4,-6 9,-8 0,3 -6,13 0,23 10,16 32,6 44,-3 15,-12 35,-33 46,-49 4,-5 19,-24 20,-30 -10,-1 -9,2 -19,17 -5,7 -11,13 -16,20 -4,4 -5,6 -9,9 -9,8 -20,21 -32,19 1,-7 22,-38 28,-46l21 -33c9,-13 7,-11 -22,-15 -6,-1 -17,19 -20,24l-33 43c-3,2 -3,3 -6,5 -5,5 -7,6 -12,10 -9,7 -7,6 -9,5 -8,-6 15,-36 20,-44 7,-11 19,-28 21,-41 0,-6 -6,-14 -12,-15 -26,-4 -44,16 -53,17z"/>
     <path class="fil33" d="M4988 2301c1,-5 1,-6 0,-10l-14 -2c-1,4 -2,4 -3,9 -1,20 -12,81 -11,87 20,3 15,10 22,-43 2,-12 5,-28 16,-33 8,-5 16,-3 23,1 11,7 5,27 4,38 -8,53 -11,45 9,48l9 -50c6,-47 40,-31 42,-20 2,9 2,15 0,25l-6 41c-1,11 -2,10 11,12 9,1 5,-10 8,-26 3,-20 10,-49 2,-63 -9,-13 -27,-18 -42,-13 -7,3 -8,6 -14,9 -4,-3 -12,-17 -25,-19 -17,-2 -20,4 -31,9z"/>
     <path class="fil33" d="M4908 2263c1,16 13,51 11,63l-43 -7 22 -42c3,-5 5,-10 10,-14zm-77 100c-1,4 7,4 12,5 7,1 10,-9 13,-15 3,-6 7,-11 9,-19 4,0 5,-1 10,0l44 6c8,1 7,5 10,20 6,24 -2,20 19,23 7,1 3,-8 2,-13l-8 -35c-1,-7 -3,-11 -5,-18l-17 -70 -20 -3 -61 103c-2,4 -7,11 -8,16z"/>
     <path class="fil33" d="M5124 2364c8,-58 64,-41 58,-1 -2,11 -4,23 -12,30 -11,11 -34,9 -42,-5 -2,-5 -5,-17 -4,-24zm-17 -8c-4,25 7,53 35,57l7 1c47,6 60,-57 43,-82 -7,-9 -18,-17 -31,-19 -29,-5 -50,16 -54,43z"/>
     <path class="fil33" d="M5238 2331l-7 8c0,1 -1,1 -1,1l-4 1 2 -15c-7,-1 -10,-3 -13,2l-6 44c-6,43 -14,43 6,47 4,-16 5,-32 8,-48 2,-17 3,-17 13,-24 4,-4 2,-3 8,-4 4,1 16,2 21,1 2,-2 12,-28 -27,-13z"/>
     <path class="fil34" d="M4824 2200c-3,24 35,40 42,7 6,-28 -38,-34 -42,-7z"/>
     <path class="fil35" d="M5244 2343c-6,1 -4,0 -8,4 -10,7 -11,7 -13,24 -3,16 -4,32 -8,48 -20,-4 -12,-4 -6,-47l6 -44c3,-5 6,-3 13,-2l-2 15 4 -1c0,0 1,0 1,-1l7 -8 -2 2c0,0 -1,1 -1,1l-3 2c0,0 -1,1 -3,1l0 -10c0,-1 0,-1 0,-2 -19,-2 -14,-8 -22,46 -8,56 -11,48 9,51 7,-18 7,-50 11,-62l2 -4c0,-1 0,-1 1,-1l5 -7c6,-3 5,-1 9,-5z"/>
    </g>
    <path class="fil36" d="M6392 2314c143,0 259,116 259,260 0,143 -116,259 -259,259 -144,0 -260,-116 -260,-259 0,-144 116,-260 260,-260z"/>
    <g style="clip-path:url(#id0)">
     <g>
      <ellipse class="fil37" transform="matrix(1.05878 0.166736 -0.166736 1.05878 6423.13 2427.4)" rx="117" ry="107"/>
      <ellipse class="fil37" transform="matrix(1.05878 0.166736 -0.166736 1.05878 6391.73 2660.32)" rx="239" ry="161"/>
     </g>
    </g>
    <path class="fil38" d="M6392 2314c143,0 259,116 259,260 0,143 -116,259 -259,259 -144,0 -260,-116 -260,-259 0,-144 116,-260 260,-260z"/>
    <rect class="fil3" transform="matrix(0.989055 0.147549 -0.147549 0.989055 4470.88 2768.26)" width="2142" height="756" rx="175" ry="175"/>
    <rect class="fil39" transform="matrix(0.343051 0.051177 -0.051177 0.343051 5641.26 3286.71)" width="2142" height="756" rx="175" ry="175"/>
   </g>
   <path class="fil0" d="M1469 361l6138 0c371,0 707,151 951,395 244,244 396,581 396,951l0 5943c0,370 -152,707 -396,951 -244,244 -580,395 -951,395l-6138 0c-370,0 -707,-151 -951,-395 -244,-244 -395,-581 -395,-951l0 -5943c0,-370 151,-707 395,-951 244,-244 581,-395 951,-395zm6138 42l-6138 0c-358,0 -684,147 -920,383 -237,236 -383,562 -383,921l0 5943c0,359 146,685 383,921 236,236 562,383 920,383l6138 0c359,0 685,-147 921,-383 236,-236 383,-562 383,-921l0 -5943c0,-359 -147,-685 -383,-921 -236,-236 -562,-383 -921,-383z"/>
  </g>
 </g>
</svg>
