<?xml version="1.0" encoding="UTF-8"?>
<!DOCTYPE svg PUBLIC "-//W3C//DTD SVG 1.1//EN" "http://www.w3.org/Graphics/SVG/1.1/DTD/svg11.dtd">
<!-- Creator: CorelDRAW X7 -->
<svg xmlns="http://www.w3.org/2000/svg" xml:space="preserve" width="0.23526in" height="0.271457in" version="1.1" style="shape-rendering:geometricPrecision; text-rendering:geometricPrecision; image-rendering:optimizeQuality; fill-rule:evenodd; clip-rule:evenodd"
viewBox="0 0 14 16"
 xmlns:xlink="http://www.w3.org/1999/xlink">
 <defs>
  <style type="text/css">
   <![CDATA[
    .fil0 {fill:#A9B7D1}
   ]]>
  </style>
 </defs>
 <g id="Layer_x0020_1">
  <metadata id="CorelCorpID_0Corel-Layer"/>
  <path class="fil0" d="M8 11c0,1 -2,3 -3,3 -1,0 -2,-1 -2,-2 0,0 0,-1 0,-2 0,-1 1,-1 2,-1 1,0 1,0 1,0l0 -3c-1,0 -2,0 -3,0 -1,1 -2,2 -2,3 -1,2 -1,4 1,6 0,1 1,1 2,1 1,1 2,1 3,0 1,0 2,-1 2,-2 1,0 1,-1 1,-3 0,0 0,0 0,0l0 -5c1,0 1,0 1,0 0,0 0,0 0,0 1,0 2,1 3,1l0 -3c-1,0 -1,0 -2,-1 -1,0 -1,-1 -1,-1 0,-1 -1,-1 -1,-2l-2 0 0 11z"/>
 </g>
</svg>
